HIERARCHY
ROOT Character1_Hips
{
  OFFSET 56.7641 93.4158 69.2284
  CHANNELS 6 Xposition Yposition Zposition Zrotation Xrotation Yrotation
  JOINT Character1_Spine
  {
    OFFSET 0 8.754 -1.339
    CHANNELS 3 Zrotation Xrotation Yrotation
    JOINT Character1_Spine1
    {
      OFFSET 0 10.855 -0.645
      CHANNELS 3 Zrotation Xrotation Yrotation
      JOINT Character1_LeftShoulder
      {
        OFFSET 1.467 27.745 1.178
        CHANNELS 3 Zrotation Xrotation Yrotation
        JOINT Character1_LeftArm
        {
          OFFSET 18.486 -1.858 0.275
          CHANNELS 3 Zrotation Xrotation Yrotation
          JOINT Character1_LeftForeArm
          {
            OFFSET 31.798 2.36 2.921
            CHANNELS 3 Zrotation Xrotation Yrotation
            JOINT Character1_LeftHand
            {
              OFFSET 29.001 1.642 2.112
              CHANNELS 3 Zrotation Xrotation Yrotation
              End Site
              {
                OFFSET 7.3734 -1.0302 1.64982
              }
            }
            JOINT ForeArmBoxL
            {
              OFFSET 14.9879 1.12959 0.0233554
              CHANNELS 3 Zrotation Xrotation Yrotation
              End Site
              {
                OFFSET 0 0 0
              }
            }
          }
          JOINT ArmBoxL
          {
            OFFSET 15.8286 1.72374 1.18509
            CHANNELS 3 Zrotation Xrotation Yrotation
            End Site
            {
              OFFSET 0 0 0
            }
          }
        }
        JOINT ShoulderBoxL
        {
          OFFSET 8.34438 1.0846 -0.108247
          CHANNELS 3 Zrotation Xrotation Yrotation
          End Site
          {
            OFFSET 0 0 0
          }
        }
      }
      JOINT Character1_RightShoulder
      {
        OFFSET -1.467 27.745 1.178
        CHANNELS 3 Zrotation Xrotation Yrotation
        JOINT Character1_RightArm
        {
          OFFSET -18.486 -1.858 0.275
          CHANNELS 3 Zrotation Xrotation Yrotation
          JOINT Character1_RightForeArm
          {
            OFFSET -31.798 2.35964 2.92082
            CHANNELS 3 Zrotation Xrotation Yrotation
            JOINT Character1_RightHand
            {
              OFFSET -29.0007 1.64167 2.112
              CHANNELS 3 Zrotation Xrotation Yrotation
              End Site
              {
                OFFSET -7.37366 -1.0295 1.65001
              }
            }
            JOINT ForeArmBoxR
            {
              OFFSET -14.9879 1.12995 0.0235372
              CHANNELS 3 Zrotation Xrotation Yrotation
              End Site
              {
                OFFSET 0 0 0
              }
            }
          }
          JOINT ArmBoxR
          {
            OFFSET -15.8286 1.72374 1.18509
            CHANNELS 3 Zrotation Xrotation Yrotation
            End Site
            {
              OFFSET 0 0 0
            }
          }
        }
        JOINT ShoulderBoxR
        {
          OFFSET -8.34438 1.0846 -0.108247
          CHANNELS 3 Zrotation Xrotation Yrotation
          End Site
          {
            OFFSET 0 0 0
          }
        }
      }
      JOINT Character1_Neck
      {
        OFFSET 0 30.836 0.626
        CHANNELS 3 Zrotation Xrotation Yrotation
        JOINT Character1_Head
        {
          OFFSET 0 8.074 3.498
          CHANNELS 3 Zrotation Xrotation Yrotation
          End Site
          {
            OFFSET 0 8.75051 -0.3664
          }
        }
        JOINT NeckBox
        {
          OFFSET 0 4.52749 1.86245
          CHANNELS 3 Zrotation Xrotation Yrotation
          End Site
          {
            OFFSET 0 0 0
          }
        }
      }
      JOINT TorsoBox
      {
        OFFSET 0 12.7155 1.00402
        CHANNELS 3 Zrotation Xrotation Yrotation
        End Site
        {
          OFFSET 0 0 0
        }
      }
    }
    JOINT SpineBox
    {
      OFFSET 0 5.28258 0.326123
      CHANNELS 3 Zrotation Xrotation Yrotation
      End Site
      {
        OFFSET 0 0 0
      }
    }
  }
  JOINT Character1_RightUpLeg
  {
    OFFSET -9.035 -4.63425 1.845
    CHANNELS 3 Zrotation Xrotation Yrotation
    JOINT Character1_RightLeg
    {
      OFFSET -0.919521 -40.345 1.155
      CHANNELS 3 Zrotation Xrotation Yrotation
      JOINT Character1_RightFoot
      {
        OFFSET 1.95452 -45.2655 -4.18888
        CHANNELS 3 Zrotation Xrotation Yrotation
        JOINT Character1_RightToeBase
        {
          OFFSET 1.87056 -6.69517 14.7145
          CHANNELS 3 Zrotation Xrotation Yrotation
          End Site
          {
            OFFSET 0 0 0
          }
        }
        JOINT TalusBoxR
        {
          OFFSET -0.257548 -3.72327 1.77314
          CHANNELS 3 Zrotation Xrotation Yrotation
          End Site
          {
            OFFSET 0 0 0
          }
        }
        JOINT FootPinkyBoxR
        {
          OFFSET -4.44001 -5.06132 12.2866
          CHANNELS 3 Zrotation Xrotation Yrotation
          End Site
          {
            OFFSET 0 0 0
          }
        }
        JOINT FootThumbBoxR
        {
          OFFSET 0.350101 -5.07916 13.5666
          CHANNELS 3 Zrotation Xrotation Yrotation
          End Site
          {
            OFFSET 0 0 0
          }
        }
      }
      JOINT TibiaBoxR
      {
        OFFSET 0.679521 -22.8458 -3.405
        CHANNELS 3 Zrotation Xrotation Yrotation
        End Site
        {
          OFFSET 0 0 0
        }
      }
    }
    JOINT FemurBoxR
    {
      OFFSET -0.557975 -20.9557 -1.11465
      CHANNELS 3 Zrotation Xrotation Yrotation
      End Site
      {
        OFFSET 0 0 0
      }
    }
  }
  JOINT Character1_LeftUpLeg
  {
    OFFSET 9.035 -4.63425 1.845
    CHANNELS 3 Zrotation Xrotation Yrotation
    JOINT Character1_LeftLeg
    {
      OFFSET 0.919521 -40.345 1.155
      CHANNELS 3 Zrotation Xrotation Yrotation
      JOINT Character1_LeftFoot
      {
        OFFSET -1.95452 -45.2655 -4.18888
        CHANNELS 3 Zrotation Xrotation Yrotation
        JOINT Character1_LeftToeBase
        {
          OFFSET -1.87056 -6.69517 14.7145
          CHANNELS 3 Zrotation Xrotation Yrotation
          End Site
          {
            OFFSET 0 0 0
          }
        }
        JOINT FootThumbBoxL
        {
          OFFSET -0.350101 -5.07916 13.5666
          CHANNELS 3 Zrotation Xrotation Yrotation
          End Site
          {
            OFFSET 0 0 0
          }
        }
        JOINT FootPinkyBoxL
        {
          OFFSET 4.44001 -5.06132 12.2866
          CHANNELS 3 Zrotation Xrotation Yrotation
          End Site
          {
            OFFSET 0 0 0
          }
        }
        JOINT TalusBoxL
        {
          OFFSET 0.257548 -3.72327 1.77314
          CHANNELS 3 Zrotation Xrotation Yrotation
          End Site
          {
            OFFSET 0 0 0
          }
        }
      }
      JOINT TibiaBoxL
      {
        OFFSET -0.679521 -22.8458 -3.405
        CHANNELS 3 Zrotation Xrotation Yrotation
        End Site
        {
          OFFSET 0 0 0
        }
      }
    }
    JOINT FemurBoxL
    {
      OFFSET 0.557975 -20.9557 -1.11465
      CHANNELS 3 Zrotation Xrotation Yrotation
      End Site
      {
        OFFSET 0 0 0
      }
    }
  }
  JOINT PelvisBox
  {
    OFFSET 0 0.0930822 -0.0838296
    CHANNELS 3 Zrotation Xrotation Yrotation
    End Site
    {
      OFFSET 0 0 0
    }
  }
}
MOTION
Frames:	8
Frame Time:	0.00833333
55.9294 96.7391 188.391 3.02782 3.02404 -173.458 9.93923e-17 0 -1.59028e-15 3.38471 2.98451 3.04484 -2.18166e-07 1.88098e-07 1.7046e-06 176.67 56.9616 104.811 82.7969 26.5202 -0.97937 1.59974 28.5257 4.31415 -13.2576 -68.9783 -17.331 -6.92027 -72.5829 -11.2678 0.27423 -0.0473218 3.14463 -2.18166e-07 1.88098e-07 1.7046e-06 95.0145 -9.11589 -33.3644 10.8203 -8.76092 68.0646 2.67941 1.68396 -7.96797 -166.742 68.9783 162.669 -173.08 72.5829 168.732 179.726 0.0473218 -176.855 -1.10348e-32 9.93923e-17 6.36111e-15 -1.2424e-17 0 4.77083e-15 0.36737 13.7665 -0.278342 -1.50414e-17 0.528321 2.83015e-15 4.15027 8.2255 2.22295 -0.9421 6.04978 -2.50232 -0.159978 -4.21525 0.319453 2.74635 -3.41459 0.632326 0.776922 3.55777 -0.338971 -178.531 -1.41374 -167.997 -179.276 -0.600381 -160.082 179.447 -1.12556 -169.995 -178 -5 180 179.002 0.985149 179.879 7.68192 -3.10326 -0.977921 0.123156 6.16438 -0.610674 -5.8002 -3.80659 -3.40403 0.00070545 1.39364 0.128562 0.553385 1.12556 10.0051 -0.724387 0.600381 19.9179 -1.46875 1.41374 12.0028 -2 5 7.91524e-16 0.99792 -0.985149 -0.120973 0 0 -1.22182e-15 
55.9239 96.8162 188.371 2.77471 2.71466 -173.74 -5.96354e-16 0 -7.95139e-16 3.11797 2.86616 3.27058 -2.18166e-07 1.88098e-07 1.7046e-06 177.987 57.4138 104.29 82.8971 16.5783 -2.82624 1.94895 35.2545 5.19244 -13.2576 -68.9783 -17.331 -6.92027 -72.5829 -11.2678 0.27423 -0.0473218 3.14463 -2.18166e-07 1.88098e-07 1.7046e-06 95.157 -8.70333 -33.0181 11.4654 -9.03609 69.0293 2.62811 1.73842 -7.83372 -166.742 68.9783 162.669 -173.08 72.5829 168.732 179.726 0.0473218 -176.855 -1.2424e-17 -1.98785e-16 -0 2.75869e-33 -9.93923e-17 1.59028e-15 0.284766 13.2904 -0.253832 -2.21096e-17 0.528321 -0 3.80021 8.1894 2.4184 -1.27138 5.74161 -2.28245 -0.161238 -4.24136 0.319965 2.76767 -3.44629 0.729804 0.845413 3.8652 -0.370713 -178.531 -1.41374 -167.997 -179.276 -0.600381 -160.082 179.447 -1.12556 -169.995 -178 -5 180 179.002 0.985149 179.879 7.41223 -2.86973 -0.946412 0.0652589 5.29135 -0.615218 -5.71862 -3.41934 -3.08954 -0.000209631 1.53927 0.14196 0.553385 1.12556 10.0051 -0.724387 0.600381 19.9179 -1.46875 1.41374 12.0028 -2 5 -1.58305e-15 0.99792 -0.985149 -0.120973 -5.72727e-16 4.37593e-16 -1.22182e-15 
55.9096 96.8321 188.349 2.51753 2.48822 -173.897 4.96962e-17 0 -0 2.79757 2.88653 3.50766 -2.18166e-07 1.88098e-07 1.7046e-06 178.86 57.9388 104.199 82.7034 9.38497 -4.4184 2.18298 39.7802 5.84474 -13.2576 -68.9783 -17.331 -6.92027 -72.5829 -11.2678 0.27423 -0.0473218 3.14463 -2.18166e-07 1.88098e-07 1.7046e-06 95.2649 -8.37777 -32.5846 12.0549 -9.24819 69.9396 2.6796 1.73327 -7.98375 -166.742 68.9783 162.669 -173.08 72.5829 168.732 179.726 0.0473218 -176.855 2.48481e-17 1.98785e-16 -3.18055e-15 2.48481e-17 9.93923e-17 -1.59028e-15 0.351676 13.0585 -0.265723 3.51577e-17 0.528321 -1.41507e-15 3.49029 8.228 2.61212 -1.58789 5.52235 -2.19101 -0.160316 -4.2377 0.320279 2.78044 -3.50509 0.815938 0.879894 4.0198 -0.386726 -178.531 -1.41374 -167.997 -179.276 -0.600381 -160.082 179.447 -1.12556 -169.995 -178 -5 -180 179.002 0.985149 179.879 7.15154 -2.6373 -0.882006 0.0204929 4.58967 -0.617296 -5.69106 -3.21175 -2.97518 -0.0019603 1.84562 0.17028 0.553385 1.12556 10.0051 -0.724387 0.600381 19.9179 -1.46875 1.41374 12.0028 -2 5 -0 0.99792 -0.985149 -0.120973 6.10909e-16 4.37593e-16 -1.22182e-15 
55.9008 96.8346 188.339 2.34193 2.30998 -174.017 -1.98785e-16 -3.97569e-16 7.95139e-16 2.61723 2.98858 3.62554 -2.18166e-07 1.88098e-07 1.7046e-06 -179.654 58.4515 103.377 82.2892 2.84072 -6.21494 2.36353 43.3777 6.62607 -13.2576 -68.9783 -17.331 -6.92027 -72.5829 -11.2678 0.27423 -0.0473218 3.14463 -2.18166e-07 1.88098e-07 1.7046e-06 95.271 -7.98562 -32.1762 12.5636 -9.38551 70.7823 2.73785 1.7216 -8.15212 -166.742 68.9783 162.669 -173.08 72.5829 168.732 179.726 0.0473218 -176.855 -2.48481e-17 -1.98785e-16 -3.18055e-15 -2.48481e-17 -1.98785e-16 -1.59028e-15 0.488436 13.1869 -0.24018 -1.81229e-17 0.528321 -2.83015e-15 3.35069 8.25788 2.70297 -1.82329 5.29223 -2.18097 -0.158044 -4.18635 0.320335 2.82566 -3.40046 0.887407 0.760008 3.48184 -0.331224 -178.531 -1.41374 -167.997 -179.276 -0.600381 -160.082 179.447 -1.12556 -169.995 -178 -5 -180 179.002 0.985149 179.879 6.96464 -2.41149 -1.03928 -0.0166706 3.97992 -0.618817 -5.63382 -3.1005 -2.71226 -0.00360488 2.11882 0.195461 0.553385 1.12556 10.0051 -0.724387 0.600381 19.9179 -1.46875 1.41374 12.0028 -2 5 -7.91524e-16 0.99792 -0.985149 -0.120973 3.81818e-17 -4.37593e-16 1.22182e-15 
55.8884 96.8464 188.32 2.17784 2.14642 -174.049 -2.23633e-16 0 -0 2.52232 3.17231 3.60646 -2.18166e-07 1.88098e-07 1.7046e-06 -177.811 59.123 102.183 81.6747 -2.8256 -8.22025 2.4979 45.9973 7.3028 -13.2576 -68.9783 -17.331 -6.92027 -72.5829 -11.2678 0.27423 -0.0473218 3.14463 -2.18166e-07 1.88098e-07 1.7046e-06 95.2342 -7.47307 -31.7646 13.0575 -9.49562 71.6121 2.82415 1.69291 -8.39852 -166.742 68.9783 162.669 -173.08 72.5829 168.732 179.726 0.0473218 -176.855 -2.48481e-17 1.98785e-16 -0 1.10348e-32 3.97569e-16 -1.59028e-15 0.454141 12.9575 -0.203258 -4.42192e-17 0.528321 -0 3.24684 8.3552 2.68582 -2.04928 5.0673 -2.24133 -0.152919 -4.10733 0.32009 2.87667 -3.30683 0.985935 0.685667 3.14684 -0.29728 -178.531 -1.41374 -167.997 -179.276 -0.600381 -160.082 179.447 -1.12556 -169.995 -178 -5 -180 179.002 0.985149 179.879 6.78432 -2.28243 -1.05515 -0.044895 3.47413 -0.619669 -5.59997 -3.00856 -2.55303 -0.00112897 1.7632 0.162628 0.553385 1.12556 10.0051 -0.724387 0.600381 19.9179 -1.46875 1.41374 12.0028 -2 5 -0 0.99792 -0.985149 -0.120973 -6.10909e-16 0 -0 
55.8703 96.862 188.302 1.99592 2.01659 -174.035 2.48481e-17 0 -0 2.36409 3.33324 3.64713 -2.18166e-07 1.88098e-07 1.7046e-06 -176.419 59.861 101.409 81.1027 -6.37851 -9.83619 2.56317 47.2558 7.72261 -13.2576 -68.9783 -17.331 -6.92027 -72.5829 -11.2678 0.27423 -0.0473218 3.14463 -2.18166e-07 1.88098e-07 1.7046e-06 95.2467 -7.32047 -31.28 13.5 -9.5738 72.3676 2.83588 1.70431 -8.43687 -166.742 68.9783 162.669 -173.08 72.5829 168.732 179.726 0.0473218 -176.855 4.96962e-17 1.98785e-16 -1.59028e-15 1.10348e-32 3.97569e-16 -1.59028e-15 0.327125 12.3858 -0.189416 1.01486e-16 0.528321 -1.41507e-15 3.06498 8.52256 2.71953 -2.27241 4.91072 -2.3032 -0.147535 -4.0231 0.3195 2.88637 -3.29986 0.997052 0.605456 2.78402 -0.261015 -178.531 -1.41374 -167.997 -179.276 -0.600381 -160.082 179.447 -1.12556 -169.995 -178 -5 180 179.002 0.985149 179.879 6.59786 -2.1993 -0.808045 -0.0647016 3.08687 -0.619744 -5.6295 -2.98242 -2.65514 -0.00187007 1.94859 0.17975 0.553385 1.12556 10.0051 -0.724387 0.600381 19.9179 -1.46875 1.41374 12.0028 -2 5 -1.58305e-15 0.99792 -0.985149 -0.120973 3.81818e-16 4.37593e-16 -2.44364e-15 
55.8775 96.8793 188.306 2.11132 1.88378 -174.061 -9.93923e-17 0 1.59028e-15 2.55295 3.2401 3.59654 -2.18166e-07 1.88098e-07 1.7046e-06 -174.866 60.4525 100.278 80.543 -8.73542 -11.2769 2.57028 47.5257 8.23588 -13.2576 -68.9783 -17.331 -6.92027 -72.5829 -11.2678 0.27423 -0.0473218 3.14463 -2.18166e-07 1.88098e-07 1.7046e-06 95.1951 -7.3553 -30.7352 13.8285 -9.68851 72.7882 2.84847 1.70794 -8.47539 -166.742 68.9783 162.669 -173.08 72.5829 168.732 179.726 0.0473218 -176.855 -4.96962e-17 -1.98785e-16 -0 -0 -1.98785e-16 -0 0.064575 12.2306 -0.137188 -3.11711e-17 0.528321 -1.41507e-15 3.2408 8.68522 2.67963 -2.1357 4.69139 -2.1956 -0.141148 -3.92861 0.318512 2.82598 -3.27587 0.805737 0.479082 2.21052 -0.204698 -178.531 -1.41374 -167.997 -179.276 -0.600381 -160.082 179.447 -1.12556 -169.995 -178 -5 -180 179.002 0.985149 179.879 6.77296 -2.20522 -0.417392 -0.078545 2.82048 -0.618925 -5.69439 -2.89239 -2.95056 -0.00415121 2.34236 0.216107 0.553385 1.12556 10.0051 -0.724387 0.600381 19.9179 -1.46875 1.41374 12.0028 -2 5 -7.91524e-16 0.99792 -0.985149 -0.120973 -8.78182e-16 -2.18796e-16 1.22182e-15 
55.8592 96.8735 188.302 2.07116 1.78964 -173.939 -6.95746e-16 3.97569e-16 -0 2.73212 3.15402 3.33448 -2.18166e-07 1.88098e-07 1.7046e-06 -173.43 61.0372 99.2676 79.9727 -10.4413 -12.6633 2.55034 47.2713 8.70548 -13.2576 -68.9783 -17.331 -6.92027 -72.5829 -11.2678 0.27423 -0.0473218 3.14463 -2.18166e-07 1.88098e-07 1.7046e-06 95.1512 -7.40067 -30.2783 14.2488 -9.81814 73.3438 2.8054 1.74658 -8.35977 -166.742 68.9783 162.669 -173.08 72.5829 168.732 179.726 0.0473218 -176.855 9.93923e-17 3.97569e-16 -1.59028e-15 -9.93923e-17 3.97569e-16 -1.59028e-15 -0.296894 12.2861 -0.0830168 8.84384e-17 0.528321 -0 3.23953 9.01632 2.49027 -2.14611 4.54665 -2.05713 -0.135139 -3.83166 0.317077 2.7311 -3.28649 0.531561 0.448956 2.07304 -0.191405 -178.531 -1.41374 -167.997 -179.276 -0.600381 -160.082 179.447 -1.12556 -169.995 -178 -5 -180 179.002 0.985149 179.879 6.78468 -2.27608 -0.261152 -0.0803935 2.71655 -0.617127 -5.76954 -2.75532 -3.30268 -0.0120382 3.26679 0.301645 0.553385 1.12556 10.0051 -0.724387 0.600381 19.9179 -1.46875 1.41374 12.0028 -2 5 -0 0.99792 -0.985149 -0.120973 -7.25454e-16 4.37593e-16 -1.22182e-15 
